<svg id="Groupe_1" data-name="Groupe 1" xmlns="http://www.w3.org/2000/svg" width="400" height="400" viewBox="0 0 400 400">
  <defs>
    <style>
      .cls-1 {
        fill: #e7e7e7;
        stroke-width: 10px;
      }

      .cls-1, .cls-3 {
        stroke: #000;
      }

      .cls-1, .cls-2, .cls-3 {
        fill-rule: evenodd;
      }

      .cls-2 {
        fill: #bd6f62;
      }

      .cls-3 {
        stroke-width: 1px;
      }
    </style>
  </defs>
  <path id="Forme_1" data-name="Forme 1" class="cls-1" d="M162.781,88.016m33-60c-16.5,1.561-77.98,44.8-90,86s-23.028,96.224-15,121c8.029,34.316,42.417,80.433,106,79,60.863-.277,91.749-34.558,107-66,12.179-26.324,14.788-65.665-21-79-30.539-7.43-29-21-29-21s22.169-17.5,13-63C240.221,36.613,212.281,26.455,195.781,28.016Zm56,121"/>
  <path id="Forme_6" data-name="Forme 6" class="cls-1" d="M483,123"/>
  <path id="Forme_5" data-name="Forme 5" class="cls-2" d="M241.781,311.016s16,17.121,21,19-5.631,4.764,5,21c6.553,10.439,8.578,10.459,11,10s7.725-3.8,4-9,2.278-2.92,4-1,7.266,5.058,7,0-4.558-5.145-1-8,4.927,3.968,8-1-3.706-9-8-12-9.76-7.467-22-6c-5.583-.788-17.642-12.319-21-18S238.776,307.688,241.781,311.016Z"/>
  <path id="Forme_2" data-name="Forme 2" class="cls-3" d="M193.781,62.016s-7.78,4.059-4,12c4.762,0.829,6.824-2.453,8-4S199.912,62.261,193.781,62.016Z"/>
  <path id="Forme_3" data-name="Forme 3" class="cls-2" d="M135.781,26.016s-19.815-.4-16,15,23.024,32.366,35,34,10-11,10-11S157.362,33.57,135.781,26.016Z"/>
  <path id="Forme_4" data-name="Forme 4" class="cls-2" d="M177.781,298.016s-2.047,25.071,7,36c5.806-.134,9.2,6.1,9.746,11.6s0.579,27.7,3.254,33.4c-3.519,1.279-5.465-7.822-8-6-3.715-1.423-10,2-10,2s2-12.085-10-7c-5.513,1.839-5.7-7.843-5-9,7.111-13.43,11.263-16.816,14-20,0.173-8.771-6.765,4.269-8-42C169.989,290.717,180.289,291.821,177.781,298.016Z"/>
</svg>
